<?xml version="1.0" encoding="UTF-8"?>
<!DOCTYPE svg PUBLIC "-//W3C//DTD SVG 1.1//EN" "http://www.w3.org/Graphics/SVG/1.1/DTD/svg11.dtd">
<svg xmlns="http://www.w3.org/2000/svg" version="1.1" width="160px" height="160px" style="shape-rendering:geometricPrecision; text-rendering:geometricPrecision; image-rendering:optimizeQuality; fill-rule:evenodd; clip-rule:evenodd" xmlns:xlink="http://www.w3.org/1999/xlink">
<g><path style="opacity:1" fill="#063da7" d="M 124.5,73.5 C 125.573,72.7494 125.74,71.7494 125,70.5C 124.283,71.0442 123.783,71.7109 123.5,72.5C 117.395,78.1031 111.395,83.9364 105.5,90C 83.2887,102.462 65.4553,97.962 52,76.5C 45.3994,56.6318 50.8994,41.1318 68.5,30C 73.9098,27.618 79.5765,26.4513 85.5,26.5C 85.5,32.8333 85.5,39.1667 85.5,45.5C 72.6856,46.8095 67.1856,53.8095 69,66.5C 74.2589,77.3686 82.4255,80.2019 93.5,75C 107.833,61.3333 122.167,47.6667 136.5,34C 137.167,33.3333 137.833,33.3333 138.5,34C 150.466,59.5356 147.133,82.8689 128.5,104C 114.267,117.411 97.4335,123.244 78,121.5C 80.0753,138.007 73.5753,149.507 58.5,156C 43.5037,156.5 28.5037,156.667 13.5,156.5C 13.5,105.167 13.5,53.8333 13.5,2.5C 41.1687,2.33336 68.8353,2.50002 96.5,3C 111.684,5.92032 124.017,13.4203 133.5,25.5C 129.255,30.2888 124.589,34.6221 119.5,38.5C 112.622,29.8203 103.622,24.6537 92.5,23C 73.1695,22.5 53.8362,22.3334 34.5,22.5C 34.5,60.5 34.5,98.5 34.5,136.5C 40.8421,136.666 47.1754,136.5 53.5,136C 54.4162,135.626 55.2496,135.126 56,134.5C 56.1786,123.59 56.6786,112.757 57.5,102C 68.8333,101.667 80.1667,101.333 91.5,101C 108.032,98.4092 119.032,89.2426 124.5,73.5 Z"/></g>
<g><path style="opacity:0.998" fill="#4491f0" d="M 112.5,43.5 C 114.028,43.5173 114.528,44.184 114,45.5C 105.802,53.3634 97.969,61.53 90.5,70C 84.653,73.6987 79.4864,72.8654 75,67.5C 72.1223,61.3302 73.289,56.1635 78.5,52C 89.9033,48.9584 101.237,46.1251 112.5,43.5 Z"/></g>
<g><path style="opacity:0.107" fill="#000400" d="M 124.5,73.5 C 124.5,72.8333 124.167,72.5 123.5,72.5C 123.783,71.7109 124.283,71.0442 125,70.5C 125.74,71.7494 125.573,72.7494 124.5,73.5 Z"/></g>
</svg>
